<svg width="101" height="63" viewBox="0 0 101 63" fill="none" xmlns="http://www.w3.org/2000/svg">
<path d="M0.35048 51.4555L0.0973556 49.2064C1.2786 48.9039 2.64158 48.7526 4.18629 48.7526C6.30215 48.7526 7.78844 49.2787 8.64517 50.3309C9.5019 51.3831 9.93027 53.2048 9.93027 55.7958C9.93027 58.3868 9.5019 60.2084 8.64517 61.2606C7.78844 62.3128 6.30215 62.8389 4.18629 62.8389C2.52475 62.8389 1.12932 62.6548 0 62.2865L0.253125 60.0375C1.2137 60.169 2.52475 60.2347 4.18629 60.2347C5.15984 60.2347 5.83484 59.9717 6.21128 59.4456C6.60071 58.9195 6.82138 57.9528 6.8733 56.5455H1.38245V54.4542H6.83436C6.75648 53.2968 6.51633 52.4945 6.11393 52.0473C5.72451 51.587 5.08196 51.3568 4.18629 51.3568C3.031 51.3568 1.7524 51.3897 0.35048 51.4555Z" fill="white"/>
<path d="M22.2616 56.5455H22.0279L19.1657 62.6022H16.1087L19.6135 55.6182L16.3813 48.9894H19.4188L22.0084 54.6121H22.3005L24.8902 48.9894H27.9277L24.6955 55.6182L28.2003 62.6022H25.1238L22.2616 56.5455Z" fill="white"/>
<path d="M35.6206 50.252C36.4643 49.2393 37.9636 48.7329 40.1184 48.7329C42.2732 48.7329 43.7725 49.2393 44.6162 50.252C45.46 51.2516 45.8818 53.0995 45.8818 55.7958C45.8818 58.492 45.46 60.3465 44.6162 61.3593C43.7725 62.3589 42.2732 62.8587 40.1184 62.8587C37.9636 62.8587 36.4643 62.3589 35.6206 61.3593C34.7898 60.3465 34.3744 58.492 34.3744 55.7958C34.3744 53.0995 34.7898 51.2516 35.6206 50.252ZM42.1823 52.1262C41.8189 51.4818 41.1309 51.1595 40.1184 51.1595C39.1059 51.1595 38.4114 51.4818 38.035 52.1262C37.6715 52.7707 37.4898 53.9939 37.4898 55.7958C37.4898 57.5977 37.6715 58.8209 38.035 59.4653C38.4114 60.1098 39.1059 60.432 40.1184 60.432C41.1309 60.432 41.8189 60.1098 42.1823 59.4653C42.5588 58.8209 42.747 57.5977 42.747 55.7958C42.747 53.9939 42.5588 52.7707 42.1823 52.1262Z" fill="white"/>
<path d="M63.8693 48.9894V62.6022H60.8903V51.1595H59.1768C58.4109 51.1595 58.002 51.541 57.9501 52.3038C57.7814 54.3424 57.6191 55.8944 57.4634 56.9598C57.3206 58.0251 57.0999 58.9392 56.8013 59.7021C56.0095 61.938 54.5232 62.9244 52.3424 62.6614L52.1283 60.3334C52.6345 60.2413 53.0369 60.0901 53.3355 59.8796C53.647 59.6692 53.8872 59.3404 54.0559 58.8932C54.3155 58.1961 54.5167 57.3544 54.6595 56.3679C54.8023 55.3683 54.9516 53.8953 55.1073 51.9487C55.2501 49.9758 56.3016 48.9894 58.2617 48.9894H63.8693Z" fill="white"/>
<path d="M72.8598 50.252C73.7036 49.2393 75.2029 48.7329 77.3577 48.7329C79.5125 48.7329 81.0117 49.2393 81.8555 50.252C82.6992 51.2516 83.1211 53.0995 83.1211 55.7958C83.1211 58.492 82.6992 60.3465 81.8555 61.3593C81.0117 62.3589 79.5125 62.8587 77.3577 62.8587C75.2029 62.8587 73.7036 62.3589 72.8598 61.3593C72.0291 60.3465 71.6137 58.492 71.6137 55.7958C71.6137 53.0995 72.0291 51.2516 72.8598 50.252ZM79.4216 52.1262C79.0581 51.4818 78.3702 51.1595 77.3577 51.1595C76.3452 51.1595 75.6507 51.4818 75.2742 52.1262C74.9108 52.7707 74.7291 53.9939 74.7291 55.7958C74.7291 57.5977 74.9108 58.8209 75.2742 59.4653C75.6507 60.1098 76.3452 60.432 77.3577 60.432C78.3702 60.432 79.0581 60.1098 79.4216 59.4653C79.798 58.8209 79.9863 57.5977 79.9863 55.7958C79.9863 53.9939 79.798 52.7707 79.4216 52.1262Z" fill="white"/>
<path d="M100.679 51.4357H96.6683V62.6022H93.6892V51.4357H89.6782V48.9894H100.679V51.4357Z" fill="white"/>
<path d="M30.7632 16.2702L42.7768 6.31626C45.9619 8.95685 47.7513 12.5379 47.7513 16.2718C47.7513 20.0057 45.9619 23.5868 42.7768 26.2274L30.7632 16.2702Z" fill="#121111"/>
<path d="M30.7632 16.2702L42.7768 6.31626C45.9619 8.95685 47.7513 12.5379 47.7513 16.2718C47.7513 20.0057 45.9619 23.5868 42.7768 26.2274L30.7632 16.2702Z" fill="url(#paint0_linear)"/>
<path d="M50.3335 8.51208L45.1985 4.25604L50.3335 0C51.0079 0.55889 51.5428 1.22241 51.9078 1.95266C52.2728 2.68292 52.4606 3.46561 52.4606 4.25604C52.4606 5.04647 52.2728 5.82916 51.9078 6.55941C51.5428 7.28967 51.0079 7.95319 50.3335 8.51208Z" fill="#121111"/>
<path d="M50.3335 8.51208L45.1985 4.25604L50.3335 0C51.0079 0.55889 51.5428 1.22241 51.9078 1.95266C52.2728 2.68292 52.4606 3.46561 52.4606 4.25604C52.4606 5.04647 52.2728 5.82916 51.9078 6.55941C51.5428 7.28967 51.0079 7.95319 50.3335 8.51208Z" fill="url(#paint1_linear)"/>
<path d="M57.6391 14.5506L52.5081 10.3111L57.6391 6.05503C58.995 7.18309 59.7563 8.7105 59.7563 10.3028C59.7563 11.8951 58.995 13.4225 57.6391 14.5506Z" fill="#121111"/>
<path d="M57.6391 14.5506L52.5081 10.3111L57.6391 6.05503C58.995 7.18309 59.7563 8.7105 59.7563 10.3028C59.7563 11.8951 58.995 13.4225 57.6391 14.5506Z" fill="url(#paint2_linear)"/>
<path d="M64.9925 20.5262L59.8575 16.2702L64.9925 12.0141C65.6669 12.573 66.2018 13.2365 66.5668 13.9668C66.9318 14.697 67.1196 15.4797 67.1196 16.2702C67.1196 17.0606 66.9318 17.8433 66.5668 18.5735C66.2018 19.3038 65.6669 19.9673 64.9925 20.5262Z" fill="#121111"/>
<path d="M64.9925 20.5262L59.8575 16.2702L64.9925 12.0141C65.6669 12.573 66.2018 13.2365 66.5668 13.9668C66.9318 14.697 67.1196 15.4797 67.1196 16.2702C67.1196 17.0606 66.9318 17.8433 66.5668 18.5735C66.2018 19.3038 65.6669 19.9673 64.9925 20.5262Z" fill="url(#paint3_linear)"/>
<path d="M57.4156 26.8789L52.2806 22.6228L57.4156 18.3668C58.0899 18.9257 58.6249 19.5892 58.9899 20.3194C59.3548 21.0497 59.5427 21.8324 59.5427 22.6228C59.5427 23.4133 59.3548 24.1959 58.9899 24.9262C58.6249 25.6565 58.0899 26.32 57.4156 26.8789Z" fill="#121111"/>
<path d="M57.4156 26.8789L52.2806 22.6228L57.4156 18.3668C58.0899 18.9257 58.6249 19.5892 58.9899 20.3194C59.3548 21.0497 59.5427 21.8324 59.5427 22.6228C59.5427 23.4133 59.3548 24.1959 58.9899 24.9262C58.6249 25.6565 58.0899 26.32 57.4156 26.8789Z" fill="url(#paint4_linear)"/>
<path d="M50.1098 32.8611L44.9749 28.6051L50.1098 24.349C50.7842 24.9079 51.3192 25.5714 51.6842 26.3017C52.0491 27.032 52.237 27.8146 52.237 28.6051C52.237 29.3955 52.0491 30.1782 51.6842 30.9085C51.3192 31.6387 50.7842 32.3022 50.1098 32.8611Z" fill="#121111"/>
<path d="M50.1098 32.8611L44.9749 28.6051L50.1098 24.349C50.7842 24.9079 51.3192 25.5714 51.6842 26.3017C52.0491 27.032 52.237 27.8146 52.237 28.6051C52.237 29.3955 52.0491 30.1782 51.6842 30.9085C51.3192 31.6387 50.7842 32.3022 50.1098 32.8611Z" fill="url(#paint5_linear)"/>
<defs>
<linearGradient id="paint0_linear" x1="24.5415" y1="22.8286" x2="77.4986" y2="11.3035" gradientUnits="userSpaceOnUse">
<stop offset="0.090882" stop-color="#389CBC"/>
<stop offset="1" stop-color="#28CBFF"/>
</linearGradient>
<linearGradient id="paint1_linear" x1="24.5415" y1="22.8286" x2="77.4986" y2="11.3035" gradientUnits="userSpaceOnUse">
<stop offset="0.090882" stop-color="#389CBC"/>
<stop offset="1" stop-color="#28CBFF"/>
</linearGradient>
<linearGradient id="paint2_linear" x1="24.5415" y1="22.8286" x2="77.4986" y2="11.3035" gradientUnits="userSpaceOnUse">
<stop offset="0.090882" stop-color="#389CBC"/>
<stop offset="1" stop-color="#28CBFF"/>
</linearGradient>
<linearGradient id="paint3_linear" x1="24.5415" y1="22.8286" x2="77.4986" y2="11.3035" gradientUnits="userSpaceOnUse">
<stop offset="0.090882" stop-color="#389CBC"/>
<stop offset="1" stop-color="#28CBFF"/>
</linearGradient>
<linearGradient id="paint4_linear" x1="24.5415" y1="22.8286" x2="77.4986" y2="11.3035" gradientUnits="userSpaceOnUse">
<stop offset="0.090882" stop-color="#389CBC"/>
<stop offset="1" stop-color="#28CBFF"/>
</linearGradient>
<linearGradient id="paint5_linear" x1="24.5415" y1="22.8286" x2="77.4986" y2="11.3035" gradientUnits="userSpaceOnUse">
<stop offset="0.090882" stop-color="#389CBC"/>
<stop offset="1" stop-color="#28CBFF"/>
</linearGradient>
</defs>
</svg>
