<svg width="216" height="136" viewBox="0 0 216 136" fill="none" xmlns="http://www.w3.org/2000/svg">
<path d="M0.751929 110.841L0.208869 106.016C2.74315 105.367 5.66731 105.042 8.98137 105.042C13.5208 105.042 16.7095 106.171 18.5476 108.428C20.3856 110.686 21.3046 114.594 21.3046 120.153C21.3046 125.712 20.3856 129.62 18.5476 131.877C16.7095 134.135 13.5208 135.263 8.98137 135.263C5.41667 135.263 2.42288 134.868 0 134.078L0.54306 129.253C2.6039 129.535 5.41667 129.676 8.98137 129.676C11.0701 129.676 12.5182 129.112 13.3258 127.983C14.1613 126.855 14.6348 124.781 14.7462 121.761H2.96594V117.275H14.6626C14.4955 114.792 13.9803 113.07 13.117 112.111C12.2815 111.123 10.903 110.629 8.98137 110.629C6.50279 110.629 3.75964 110.7 0.751929 110.841Z" fill="white"/>
<path d="M47.7605 121.761H47.2592L41.1185 134.756H34.56L42.0793 119.772L35.1448 105.55H41.6615L47.2175 117.613H47.8441L53.4 105.55H59.9167L52.9823 119.772L60.5015 134.756H53.9013L47.7605 121.761Z" fill="white"/>
<path d="M76.4213 108.259C78.2315 106.086 81.4481 105 86.071 105C90.694 105 93.9106 106.086 95.7208 108.259C97.531 110.404 98.4361 114.368 98.4361 120.153C98.4361 125.938 97.531 129.916 95.7208 132.089C93.9106 134.233 90.694 135.306 86.071 135.306C81.4481 135.306 78.2315 134.233 76.4213 132.089C74.6389 129.916 73.7478 125.938 73.7478 120.153C73.7478 114.368 74.6389 110.404 76.4213 108.259ZM90.4991 112.28C89.7193 110.897 88.2433 110.206 86.071 110.206C83.8988 110.206 82.4089 110.897 81.6012 112.28C80.8215 113.663 80.4316 116.287 80.4316 120.153C80.4316 124.019 80.8215 126.643 81.6012 128.026C82.4089 129.408 83.8988 130.1 86.071 130.1C88.2433 130.1 89.7193 129.408 90.4991 128.026C91.3067 126.643 91.7105 124.019 91.7105 120.153C91.7105 116.287 91.3067 113.663 90.4991 112.28Z" fill="white"/>
<path d="M137.027 105.55V134.756H130.636V110.206H126.959C125.316 110.206 124.439 111.024 124.328 112.661C123.966 117.035 123.618 120.365 123.283 122.65C122.977 124.936 122.504 126.897 121.863 128.534C120.164 133.331 116.975 135.447 112.297 134.882L111.837 129.888C112.923 129.69 113.787 129.366 114.427 128.914C115.096 128.463 115.611 127.758 115.973 126.798C116.53 125.303 116.962 123.497 117.268 121.38C117.574 119.236 117.895 116.075 118.229 111.899C118.535 107.667 120.791 105.55 124.996 105.55H137.027Z" fill="white"/>
<path d="M156.315 108.259C158.126 106.086 161.342 105 165.965 105C170.588 105 173.805 106.086 175.615 108.259C177.425 110.404 178.33 114.368 178.33 120.153C178.33 125.938 177.425 129.916 175.615 132.089C173.805 134.233 170.588 135.306 165.965 135.306C161.342 135.306 158.126 134.233 156.315 132.089C154.533 129.916 153.642 125.938 153.642 120.153C153.642 114.368 154.533 110.404 156.315 108.259ZM170.393 112.28C169.613 110.897 168.137 110.206 165.965 110.206C163.793 110.206 162.303 110.897 161.495 112.28C160.715 113.663 160.326 116.287 160.326 120.153C160.326 124.019 160.715 126.643 161.495 128.026C162.303 129.408 163.793 130.1 165.965 130.1C168.137 130.1 169.613 129.408 170.393 128.026C171.201 126.643 171.605 124.019 171.605 120.153C171.605 116.287 171.201 113.663 170.393 112.28Z" fill="white"/>
<path d="M216 110.799H207.395V134.756H201.003V110.799H192.398V105.55H216V110.799Z" fill="white"/>
<path d="M66 35.3534L91.7742 13.9981C98.6078 19.6633 102.447 27.3461 102.447 35.357C102.447 43.3678 98.6078 51.0507 91.7742 56.7159L66 35.3534Z" fill="#121111"/>
<path d="M66 35.3534L91.7742 13.9981C98.6078 19.6633 102.447 27.3461 102.447 35.357C102.447 43.3678 98.6078 51.0507 91.7742 56.7159L66 35.3534Z" fill="url(#paint0_linear)"/>
<path d="M107.987 18.709L96.9698 9.57803L107.987 0.447021C109.433 1.64608 110.581 3.06961 111.364 4.63631C112.147 6.20302 112.55 7.88222 112.55 9.57803C112.55 11.2738 112.147 12.953 111.364 14.5198C110.581 16.0865 109.433 17.51 107.987 18.709Z" fill="#121111"/>
<path d="M107.987 18.709L96.9698 9.57803L107.987 0.447021C109.433 1.64608 110.581 3.06961 111.364 4.63631C112.147 6.20302 112.55 7.88222 112.55 9.57803C112.55 11.2738 112.147 12.953 111.364 14.5198C110.581 16.0865 109.433 17.51 107.987 18.709Z" fill="url(#paint1_linear)"/>
<path d="M123.66 31.6642L112.652 22.5687L123.66 13.4376C126.569 15.8578 128.203 19.1348 128.203 22.5509C128.203 25.9671 126.569 29.244 123.66 31.6642Z" fill="#121111"/>
<path d="M123.66 31.6642L112.652 22.5687L123.66 13.4376C126.569 15.8578 128.203 19.1348 128.203 22.5509C128.203 25.9671 126.569 29.244 123.66 31.6642Z" fill="url(#paint2_linear)"/>
<path d="M139.436 44.4844L128.42 35.3534L139.436 26.2224C140.883 27.4215 142.031 28.845 142.814 30.4117C143.597 31.9784 144 33.6576 144 35.3534C144 37.0492 143.597 38.7284 142.814 40.2952C142.031 41.8619 140.883 43.2854 139.436 44.4844Z" fill="#121111"/>
<path d="M139.436 44.4844L128.42 35.3534L139.436 26.2224C140.883 27.4215 142.031 28.845 142.814 30.4117C143.597 31.9784 144 33.6576 144 35.3534C144 37.0492 143.597 38.7284 142.814 40.2952C142.031 41.8619 140.883 43.2854 139.436 44.4844Z" fill="url(#paint3_linear)"/>
<path d="M123.181 58.1136L112.164 48.9826L123.181 39.8516C124.628 41.0506 125.775 42.4742 126.558 44.0409C127.341 45.6076 127.744 47.2868 127.744 48.9826C127.744 50.6784 127.341 52.3576 126.558 53.9243C125.775 55.491 124.628 56.9146 123.181 58.1136Z" fill="#121111"/>
<path d="M123.181 58.1136L112.164 48.9826L123.181 39.8516C124.628 41.0506 125.775 42.4742 126.558 44.0409C127.341 45.6076 127.744 47.2868 127.744 48.9826C127.744 50.6784 127.341 52.3576 126.558 53.9243C125.775 55.491 124.628 56.9146 123.181 58.1136Z" fill="url(#paint4_linear)"/>
<path d="M107.507 70.9481L96.4901 61.8171L107.507 52.6861C108.954 53.8851 110.101 55.3087 110.884 56.8754C111.667 58.4421 112.07 60.1213 112.07 61.8171C112.07 63.5129 111.667 65.1921 110.884 66.7588C110.101 68.3255 108.954 69.749 107.507 70.9481Z" fill="#121111"/>
<path d="M107.507 70.9481L96.4901 61.8171L107.507 52.6861C108.954 53.8851 110.101 55.3087 110.884 56.8754C111.667 58.4421 112.07 60.1213 112.07 61.8171C112.07 63.5129 111.667 65.1921 110.884 66.7588C110.101 68.3255 108.954 69.749 107.507 70.9481Z" fill="url(#paint5_linear)"/>
<defs>
<linearGradient id="paint0_linear" x1="52.6518" y1="49.4241" x2="166.267" y2="24.6978" gradientUnits="userSpaceOnUse">
<stop offset="0.090882" stop-color="#389CBC"/>
<stop offset="1" stop-color="#28CBFF"/>
</linearGradient>
<linearGradient id="paint1_linear" x1="52.6518" y1="49.4241" x2="166.267" y2="24.6978" gradientUnits="userSpaceOnUse">
<stop offset="0.090882" stop-color="#389CBC"/>
<stop offset="1" stop-color="#28CBFF"/>
</linearGradient>
<linearGradient id="paint2_linear" x1="52.6518" y1="49.4241" x2="166.267" y2="24.6978" gradientUnits="userSpaceOnUse">
<stop offset="0.090882" stop-color="#389CBC"/>
<stop offset="1" stop-color="#28CBFF"/>
</linearGradient>
<linearGradient id="paint3_linear" x1="52.6518" y1="49.4241" x2="166.267" y2="24.6978" gradientUnits="userSpaceOnUse">
<stop offset="0.090882" stop-color="#389CBC"/>
<stop offset="1" stop-color="#28CBFF"/>
</linearGradient>
<linearGradient id="paint4_linear" x1="52.6518" y1="49.4241" x2="166.267" y2="24.6978" gradientUnits="userSpaceOnUse">
<stop offset="0.090882" stop-color="#389CBC"/>
<stop offset="1" stop-color="#28CBFF"/>
</linearGradient>
<linearGradient id="paint5_linear" x1="52.6518" y1="49.4241" x2="166.267" y2="24.6978" gradientUnits="userSpaceOnUse">
<stop offset="0.090882" stop-color="#389CBC"/>
<stop offset="1" stop-color="#28CBFF"/>
</linearGradient>
</defs>
</svg>
