<svg width="20" height="18" viewBox="0 0 20 18" fill="none" xmlns="http://www.w3.org/2000/svg">
<path d="M16.1594 0C15.0483 0 14.1304 0.385544 13.4058 1.15663C12.6812 1.87952 12.3188 2.79518 12.3188 3.90362C12.3188 4.48193 12.4155 5.10843 12.6087 5.78313C12.7536 6.40964 12.971 7.15663 13.2609 8.0241L16.3768 18L19.8551 18L17.3188 7.59036C18.1401 7.3494 18.7923 6.91566 19.2754 6.28916C19.7585 5.61446 20 4.81928 20 3.90362C20 2.74699 19.6377 1.80723 18.913 1.08434C18.1884 0.361446 17.2705 0 16.1594 0ZM3.84058 0C2.72947 0 1.81159 0.385544 1.08696 1.15663C0.362318 1.87952 -9.71364e-08 2.79518 0 3.90362C5.06797e-08 4.48193 0.0966186 5.10843 0.289856 5.78313C0.434783 6.40964 0.652174 7.15663 0.94203 8.0241L4.05797 18L7.53623 18L5 7.59036C5.82126 7.3494 6.47343 6.91566 6.95652 6.28916C7.43961 5.61446 7.68116 4.81928 7.68116 3.90362C7.68116 2.74699 7.31884 1.80723 6.5942 1.08434C5.86957 0.361446 4.95169 0 3.84058 0Z" fill="#FFA928"/>
</svg>
