<svg width="28" height="38" viewBox="0 0 28 38" fill="none" xmlns="http://www.w3.org/2000/svg">
<path d="M21.5905 3.16553H5.75668C5.31967 3.16553 4.96497 3.52023 4.96497 3.95724C4.96497 4.39426 5.31967 4.74896 5.75668 4.74896H21.5905C22.0291 4.74896 22.3822 4.39426 22.3822 3.95724C22.3822 3.52023 22.0275 3.16553 21.5905 3.16553Z" fill="#B4B4B4"/>
<path d="M6.87619 3.95732L9.48403 1.35105C9.79279 1.04229 9.79279 0.540329 9.48403 0.23157C9.17527 -0.0771899 8.67331 -0.0771899 8.36455 0.23157L5.19776 3.39836C4.889 3.70712 4.889 4.20908 5.19776 4.51784L8.36455 7.68463C8.51974 7.83819 8.72081 7.91583 8.92351 7.91583C9.12621 7.91583 9.32883 7.83826 9.48247 7.68307C9.79123 7.37431 9.79123 6.87235 9.48247 6.56359L6.87619 3.95732Z" fill="#B4B4B4"/>
<path d="M26.8918 9.73167C25.8103 8.65019 24.1082 8.55838 22.9238 9.46247C22.7861 8.97951 22.528 8.5235 22.1464 8.14349C20.9668 6.96389 19.0493 6.96389 17.8697 8.14349L7.09002 18.9232L6.08618 12.5295C5.83917 10.802 4.33812 9.49891 2.59163 9.49891C1.28214 9.49891 0.216553 10.5645 0.216553 11.874V26.8037C0.216553 29.1297 1.12227 31.3163 2.76738 32.9615L5.25802 35.4521C6.90001 37.0956 9.08508 37.9997 11.4079 37.9997C13.5772 37.9997 15.6561 37.1954 17.2616 35.7371L23.8042 29.7836C24.9822 28.604 24.9822 26.685 23.7947 25.4974C23.4178 25.1206 22.9666 24.8641 22.4852 24.7311C23.3925 23.5467 23.3022 21.8382 22.2112 20.7473C21.8423 20.3783 21.4005 20.125 20.9334 19.9872L26.9012 14.0179C28.0793 12.8383 28.0793 10.9192 26.8918 9.73167ZM25.7834 12.8953L16.2831 22.3956C16.1296 22.5508 16.0519 22.7534 16.0519 22.9561C16.0519 23.1588 16.1279 23.3614 16.2831 23.5166C16.5919 23.8254 17.0938 23.8254 17.4026 23.5166L19.0541 21.8651C19.6162 21.3046 20.5298 21.303 21.1014 21.8746C21.6635 22.4367 21.6635 23.3503 21.1014 23.9124L19.4499 25.5639C19.4499 25.5639 19.4467 25.5671 19.4452 25.5687C19.1411 25.879 19.1427 26.3762 19.4499 26.6834C19.7587 26.9922 20.2606 26.9922 20.5694 26.6834L20.6374 26.6153C21.1821 26.0706 22.1227 26.0628 22.6848 26.6248C23.2468 27.1869 23.2468 28.1006 22.7117 28.6373L16.1961 34.5655C14.8835 35.7578 13.1829 36.4165 11.4079 36.4165C9.50784 36.4165 7.72023 35.6771 6.37594 34.3328L3.8853 31.8421C2.53945 30.4963 1.79843 28.707 1.79843 26.8038V11.874C1.79843 11.437 2.15313 11.0823 2.59014 11.0823C3.55286 11.0823 4.38095 11.8011 4.5187 12.7654L5.76955 20.7013C5.81549 20.9958 6.02287 21.2381 6.30632 21.3315C6.58813 21.4233 6.90009 21.3473 7.11065 21.1383L18.9908 9.25821C19.5528 8.69769 20.4665 8.69614 21.0381 9.26771C21.6002 9.82979 21.6002 10.7434 21.0381 11.3055L13.1163 19.2272C12.9628 19.3824 12.8851 19.585 12.8851 19.7877C12.8851 19.9904 12.9611 20.1931 13.1163 20.3483C13.4251 20.657 13.927 20.657 14.2358 20.3483L23.7361 10.848C24.2982 10.2859 25.2118 10.2859 25.7834 10.8575C26.3455 11.4195 26.3455 12.3332 25.7834 12.8953Z" fill="#B4B4B4"/>
</svg>
